<svg xmlns="http://www.w3.org/2000/svg" width="12" height="12" viewBox="0 0 12 12" fill="#bfd8e3">
<path d="M12,4.969v2h-1.101c-0.114,0.561-0.331,1.082-0.616,1.556l1.11,1.11l-1.414,1.414
	l-1.044-1.044C8.367,10.416,7.712,10.714,7,10.86V12H5v-1.132c-0.538-0.109-1.04-0.312-1.499-0.579L2.49,11.299L1.076,9.885
	L2.001,8.96C1.569,8.38,1.259,7.704,1.109,6.969H0v-2h1.101C1.238,4.293,1.52,3.673,1.9,3.127L0.826,2.053L2.24,0.638L3.352,1.75
	C3.852,1.438,4.403,1.2,5,1.078V0h2v1.078c0.658,0.134,1.264,0.406,1.8,0.77l1.209-1.209l1.414,1.414l-1.227,1.227
	c0.328,0.509,0.577,1.075,0.702,1.689H12z M6,3C4.343,3,3,4.343,3,6s1.343,3,3,3c1.657,0,3-1.343,3-3S7.657,3,6,3z M6,8
	C4.896,8,4,7.104,4,6s0.896-2,2-2s2,0.896,2,2S7.104,8,6,8z"/>
</svg>
