<svg xmlns="http://www.w3.org/2000/svg" width="11.017" height="11.435" viewBox="0 0 11.017 11.435" fill="#ffffff">
<path d="M7.768,5.349c-0.103,0.139-0.307,0.14-0.396,0.302
  c-0.13,0.233-0.057,0.561-0.139,0.813C7.14,6.75,6.902,6.771,6.884,7.145C7,7.161,7.117,7.177,7.232,7.193
  c0.117,0.242,0.33,0.728,0.547,0.875c0.183,0.049,0.365,0.097,0.547,0.146c0.639,0.256,1.349,0.562,1.99,0.826
  c0.583,0.24,0.484,0.312,0.695,0.909c0,0.406,0.011,0.955,0,1.486H0.005c-0.011-0.531,0-1.08,0-1.486
  C0.215,9.352,0.07,9.28,0.653,9.04c0.641-0.264,1.351-0.57,1.99-0.826C2.826,8.165,3.008,8.117,3.19,8.068
  c0.217-0.146,0.431-0.633,0.547-0.875l0.259-0.062c-0.059-0.319-0.261-0.344-0.346-0.57c-0.033-0.34-0.066-0.68-0.099-1.021
  c0.001,0.016-0.238-0.042-0.27-0.062C2.944,5.272,2.938,4.433,2.905,4.084C2.89,3.924,3.117,3.793,3.054,3.5
  c-0.37-1.714,0.16-2.873,0.999-3.139c0.582-0.23,1.669-0.658,2.683-0.048l0.251,0.228L7.394,0.61
  c0.204,0.115,0.334,0.497,0.334,0.497C7.835,1.528,7.846,1.92,7.836,2.353C7.833,2.521,7.734,3.292,7.761,3.529
  C7.783,3.724,7.833,3.739,7.912,3.9C8.049,4.18,8.003,4.566,7.95,4.849C7.921,5.003,7.86,5.223,7.768,5.349z"/>
</svg>
